<?xml version="1.0" encoding="UTF-8" standalone="no"?>
<!-- Created with Inkscape (http://www.inkscape.org/) -->

<svg
   width="36.777073mm"
   height="36.815353mm"
   viewBox="0 0 36.777073 36.815353"
   version="1.1"
   id="svg1"
   inkscape:version="1.4 (e7c3feb100, 2024-10-09)"
   sodipodi:docname="scallop.svg"
   inkscape:export-filename="scallop2.png"
   inkscape:export-xdpi="94.618736"
   inkscape:export-ydpi="94.618736"
   xmlns:inkscape="http://www.inkscape.org/namespaces/inkscape"
   xmlns:sodipodi="http://sodipodi.sourceforge.net/DTD/sodipodi-0.dtd"
   xmlns="http://www.w3.org/2000/svg"
   xmlns:svg="http://www.w3.org/2000/svg">
  <sodipodi:namedview
     id="namedview1"
     pagecolor="#ffffff"
     bordercolor="#000000"
     borderopacity="0.25"
     inkscape:showpageshadow="2"
     inkscape:pageopacity="0.0"
     inkscape:pagecheckerboard="0"
     inkscape:deskcolor="#d1d1d1"
     inkscape:document-units="mm"
     inkscape:zoom="3.9005153"
     inkscape:cx="59.222945"
     inkscape:cy="79.476679"
     inkscape:window-width="1678"
     inkscape:window-height="1027"
     inkscape:window-x="1360"
     inkscape:window-y="21"
     inkscape:window-maximized="1"
     inkscape:current-layer="layer1"
     inkscape:export-bgcolor="#ffffffff" />
  <defs
     id="defs1" />
  <g
     inkscape:label="Layer 1"
     inkscape:groupmode="layer"
     id="layer1"
     transform="translate(-93.662498,-116.15208)">
    <path
       style="fill:#000000;stroke-width:0.187125"
       d="m 112.82297,116.22496 c 0.27011,0.0541 0.71799,0.25536 2.02992,0.91223 l 1.68335,0.84284 1.63384,0.0753 c 1.99176,0.0918 2.2022,0.11781 2.66019,0.32834 0.44196,0.20316 1.04877,0.64636 1.30607,0.95393 0.10593,0.12663 0.60919,0.86983 1.11834,1.65157 l 0.92574,1.42138 1.59713,1.03972 c 1.78147,1.15971 1.89917,1.26503 2.27364,2.03426 0.3286,0.67501 0.37873,0.97795 0.48269,2.91676 l 0.0929,1.73286 0.84521,1.6586 c 0.46486,0.91223 0.87319,1.75885 0.90739,1.88139 0.0979,0.35061 0.0723,1.29139 -0.0473,1.74297 -0.0671,0.25346 -0.35304,0.88474 -0.85204,1.88139 -0.41304,0.82498 -0.77574,1.5306 -0.80599,1.56806 -0.0337,0.0417 -0.0967,0.81923 -0.16253,2.00517 -0.12114,2.18233 -0.13645,2.2603 -0.57754,2.9403 -0.42896,0.66132 -0.63294,0.83252 -2.25389,1.89165 l -1.51928,0.9927 -1.01495,1.56595 c -1.10589,1.70622 -1.26494,1.89317 -1.89006,2.22167 -0.79944,0.42009 -1.09471,0.47041 -3.35803,0.5722 l -1.36153,0.0612 -1.75761,0.88248 c -1.63494,0.82089 -1.78526,0.88632 -2.1537,0.93736 -0.45663,0.0633 -0.97938,0.0265 -1.49473,-0.10517 -0.23549,-0.0602 -0.90583,-0.36617 -1.98041,-0.90404 l -1.62442,-0.81309 -1.28727,-0.0593 c -2.29045,-0.10547 -2.497,-0.12604 -2.87954,-0.28677 -0.18727,-0.0787 -0.4849,-0.24065 -0.66138,-0.35993 -0.59045,-0.39906 -0.86104,-0.729 -1.86812,-2.27787 l -0.949652,-1.46055 -1.49215,-0.96545 c -0.82069,-0.531 -1.57979,-1.04031 -1.68689,-1.13181 -0.3553,-0.30351 -0.69966,-0.88081 -0.91059,-1.52661 -0.14018,-0.42918 -0.18117,-0.85833 -0.26865,-2.81247 l -0.0532,-1.18825 -0.90272,-1.7906 -0.90271,-1.79061 v -0.78393 c 0,-1.03293 0.0342,-1.13607 1.01585,-3.06086 l 0.78301,-1.53536 0.0798,-1.63384 c 0.0439,-0.89861 0.10203,-1.80093 0.12925,-2.00516 0.0797,-0.59775 0.44921,-1.27804 0.99613,-1.83377 0.17495,-0.17776 0.78275,-0.60777 1.74829,-1.23691 l 1.48012,-0.96441 0.621812,-0.95339 c 0.34199,-0.52436 0.81799,-1.25498 1.05777,-1.62359 0.47513,-0.73039 0.71199,-0.95229 1.37116,-1.28448 0.72111,-0.36342 0.94231,-0.39671 3.46573,-0.52166 l 1.16348,-0.0576 1.64208,-0.83374 c 0.90313,-0.45856 1.75937,-0.86858 1.90275,-0.91116 0.32681,-0.0971 1.21841,-0.097 1.70327,4e-5 z"
       id="path1" />
    <circle
       style="fill:#ffffff;stroke-width:0.186411"
       id="path2"
       cx="-112.05103"
       cy="-118.51221"
       r="1.5771153"
       transform="scale(-1)" />
  </g>
</svg>
